<?xml version="1.0" encoding="utf-8"?>
<svg version="1.1" id="Layer_1" xmlns="http://www.w3.org/2000/svg" xmlns:xlink="http://www.w3.org/1999/xlink" x="0px" y="0px"
	 viewBox="0 0 156 45">
<!-- <rect width="100%" height="100%" fill="#2e4fbf" /> -->
<g clip-path="url(#clip0_304_20090)"><path d="M85.261 14.1235H76.7911V44.5093H85.261V14.1235Z" fill="#2250C6"></path><path d="M73.7027 30.3927C74.8257 28.864 75.3873 26.9142 75.3873 24.5745V24.4965C75.3873 21.5172 74.4826 19.1618 72.7044 17.4148C71.6905 16.3697 70.3802 15.5586 68.7579 14.9814C67.1357 14.4043 65.1547 14.1079 62.8149 14.1079H48.4488V40.1885L37.4207 14.1079H29.1067L16.2536 44.4937H25.1135L27.2817 39.0654H39.0117L41.2267 44.4937H56.8563V35.2906H60.5376L66.6678 44.4937H76.4012L69.1479 33.9023C71.0509 33.1068 72.5796 31.9369 73.7027 30.3927ZM29.7619 32.5609L33.1935 23.9193L36.5784 32.5609H29.7619ZM66.9329 25.1048C66.9329 26.2123 66.543 27.0858 65.7631 27.7253C64.9831 28.3805 63.8756 28.7081 62.425 28.7081H56.8719V21.408H62.3938C63.8132 21.408 64.9207 21.7044 65.7319 22.2971C66.543 22.8898 66.9485 23.7945 66.9485 25.0112V25.1048H66.9329Z" fill="#2250C6"></path><path d="M19.0301 26.6179H8.42316V21.5016H21.1827L24.318 14.1079H0V44.5093H8.42316V33.6528H16.0508L19.0301 26.6179Z" fill="#2250C6"></path><path d="M93.6688 22.4531H97.6776V23.0303H94.3084V25.0269H97.3189V25.604H94.3084V28.0374H93.6844V22.4531H93.6688Z" fill="#2250C6"></path><path d="M98.0521 25.2608V25.2452C98.0521 23.7166 99.2064 22.3595 100.907 22.3595C102.607 22.3595 103.745 23.6854 103.745 25.2296C103.756 25.24 103.756 25.2452 103.745 25.2452C103.745 26.7739 102.591 28.1309 100.891 28.1309C99.1908 28.1309 98.0521 26.7895 98.0521 25.2608ZM103.09 25.2608V25.2452C103.09 23.9817 102.17 22.9522 100.891 22.9522C99.6119 22.9522 98.7072 23.9661 98.7072 25.2296V25.2452C98.7072 26.5087 99.6275 27.5382 100.907 27.5382C102.186 27.5382 103.09 26.5243 103.09 25.2608Z" fill="#2250C6"></path><path d="M104.666 22.4531H107.068C107.754 22.4531 108.3 22.6559 108.643 23.0147C108.908 23.2798 109.08 23.6698 109.08 24.1066V24.1222C109.08 25.0425 108.441 25.5884 107.567 25.7444L109.283 28.0218H108.503L106.881 25.8536H105.29V28.0218H104.666V22.4531ZM107.005 25.292C107.848 25.292 108.441 24.8553 108.441 24.1534V24.1378C108.441 23.4514 107.91 23.0459 107.021 23.0459H105.305V25.3076H107.005V25.292Z" fill="#2250C6"></path><path d="M113.479 23.0458H111.607V22.4686H115.975V23.0458H114.103V28.0373H113.463V23.0458H113.479Z" fill="#2250C6"></path><path d="M116.661 22.4531H117.285V24.9333H120.498V22.4531H121.122V28.0218H120.498V25.5104H117.285V28.0218H116.661V22.4531Z" fill="#2250C6"></path><path d="M122.354 22.4531H126.379V23.0303H122.978V24.9333H126.02V25.5104H122.978V27.4602H126.41V28.0374H122.339L122.354 22.4531Z" fill="#2250C6"></path><path d="M93.4193 33.528V33.5124C93.4193 31.937 94.5892 30.6267 96.2426 30.6267C97.2565 30.6267 97.8649 30.9855 98.4108 31.5158L97.974 31.9838C97.5061 31.5314 96.9758 31.2194 96.227 31.2194C94.9948 31.2194 94.0744 32.2177 94.0744 33.4968V33.5124C94.0744 34.8071 95.0104 35.8054 96.227 35.8054C96.9914 35.8054 97.4905 35.509 98.0209 35.0099L98.442 35.4154C97.8649 36.0082 97.2253 36.3981 96.2114 36.3981C94.6048 36.3981 93.4193 35.1347 93.4193 33.528Z" fill="#2250C6"></path><path d="M98.7072 33.528V33.5124C98.7072 31.9838 99.8615 30.6267 101.562 30.6267C103.262 30.6267 104.401 31.9526 104.401 33.4968C104.411 33.5072 104.411 33.5124 104.401 33.5124C104.401 35.0411 103.246 36.3981 101.546 36.3981C99.8459 36.3981 98.7072 35.0723 98.7072 33.528ZM103.746 33.528V33.5124C103.746 32.2489 102.825 31.2194 101.546 31.2194C100.267 31.2194 99.3624 32.2333 99.3624 33.4968V33.5124C99.3624 34.7759 100.283 35.8054 101.562 35.8054C102.841 35.821 103.746 34.7915 103.746 33.528Z" fill="#2250C6"></path><path d="M105.321 30.7358H105.96L107.988 33.7775L110.016 30.7358H110.656V36.3045H110.032V31.7965L108.004 34.7758H107.973L105.945 31.7965V36.3045H105.336L105.321 30.7358Z" fill="#2250C6"></path><path d="M111.872 30.7358H112.512L114.54 33.7775L116.567 30.7358H117.207V36.3045H116.583V31.7965L114.555 34.7758H114.524L112.496 31.7965V36.3045H111.888L111.872 30.7358Z" fill="#2250C6"></path><path d="M118.127 33.528V33.5124C118.127 31.9838 119.282 30.6267 120.982 30.6267C122.682 30.6267 123.821 31.9526 123.821 33.4968C123.831 33.5072 123.831 33.5124 123.821 33.5124C123.821 35.0411 122.666 36.3981 120.966 36.3981C119.266 36.3981 118.127 35.0723 118.127 33.528ZM123.166 33.528V33.5124C123.166 32.2489 122.245 31.2194 120.966 31.2194C119.687 31.2194 118.782 32.2333 118.782 33.4968V33.5124C118.782 34.7759 119.703 35.8054 120.982 35.8054C122.245 35.821 123.166 34.7915 123.166 33.528Z" fill="#2250C6"></path><path d="M124.741 30.7358H125.334L128.843 35.197V30.7358H129.452V36.3045H128.937L125.349 31.7341V36.3045H124.741V30.7358Z" fill="#2250C6"></path><path d="M132.369 33.528V33.5124C132.369 31.9838 133.492 30.6267 135.161 30.6267C136.097 30.6267 136.674 30.8919 137.235 31.3598L136.83 31.8434C136.393 31.469 135.925 31.2039 135.13 31.2039C133.897 31.2039 133.008 32.2489 133.008 33.4812V33.4968C133.008 34.8227 133.866 35.8054 135.208 35.8054C135.847 35.8054 136.44 35.5558 136.814 35.2438V33.8556H135.114V33.294H137.407V35.509C136.892 35.977 136.112 36.3669 135.176 36.3669C133.445 36.3981 132.369 35.1191 132.369 33.528Z" fill="#2250C6"></path><path d="M138.171 33.528V33.5124C138.171 31.9838 139.326 30.6267 141.026 30.6267C142.726 30.6267 143.865 31.9526 143.865 33.4968C143.875 33.5072 143.875 33.5124 143.865 33.5124C143.865 35.0411 142.71 36.3981 141.01 36.3981C139.31 36.3981 138.171 35.0723 138.171 33.528ZM143.194 33.528V33.5124C143.194 32.2489 142.274 31.2194 140.995 31.2194C139.716 31.2194 138.811 32.2333 138.811 33.4968V33.5124C138.811 34.7759 139.731 35.8054 141.01 35.8054C142.289 35.821 143.194 34.7915 143.194 33.528Z" fill="#2250C6"></path><path d="M144.489 33.528V33.5124C144.489 31.9838 145.643 30.6267 147.343 30.6267C149.043 30.6267 150.182 31.9526 150.182 33.4968C150.192 33.5072 150.192 33.5124 150.182 33.5124C150.182 35.0411 149.028 36.3981 147.328 36.3981C145.627 36.3981 144.489 35.0723 144.489 33.528ZM149.527 33.528V33.5124C149.527 32.2489 148.607 31.2194 147.328 31.2194C146.048 31.2194 145.144 32.2333 145.144 33.4968V33.5124C145.144 34.7759 146.064 35.8054 147.343 35.8054C148.607 35.821 149.527 34.7915 149.527 33.528Z" fill="#2250C6"></path><path d="M151.102 30.7358H153.036C154.784 30.7358 156 31.9369 156 33.4968V33.5124C156 35.0722 154.784 36.3045 153.036 36.3045H151.102V30.7358ZM153.036 35.7117C154.44 35.7117 155.345 34.7602 155.345 33.528V33.5124C155.345 32.2801 154.44 31.313 153.036 31.313H151.726V35.7273L153.036 35.7117Z" fill="#2250C6"></path><path d="M93.7001 39.0031H96.2895C96.929 39.0031 97.4281 39.1746 97.7401 39.5022C97.9897 39.7518 98.1145 40.0637 98.1145 40.4537V40.4693C98.1145 41.0932 97.7869 41.452 97.3813 41.6704C98.0209 41.92 98.4264 42.2943 98.4264 43.043V43.0586C98.4264 44.0725 97.5997 44.5873 96.3362 44.5873H93.6845L93.7001 39.0031ZM96.0243 41.2492C96.5702 41.2492 96.9134 41.0776 96.9134 40.6565V40.6409C96.9134 40.2821 96.6326 40.0637 96.1023 40.0637H94.8856V41.2336H96.0243V41.2492ZM96.3518 43.4954C96.8978 43.4954 97.2254 43.3082 97.2254 42.8871V42.8715C97.2254 42.4971 96.9446 42.2631 96.3206 42.2631H94.9012V43.4954H96.3518Z" fill="#2250C6"></path><path d="M99.4091 39.0031H101.952C102.654 39.0031 103.215 39.2058 103.574 39.5646C103.886 39.8766 104.057 40.3133 104.057 40.8437V40.8593C104.057 41.764 103.574 42.3255 102.856 42.5907L104.213 44.5717H102.778L101.593 42.7935H100.626V44.5717H99.3935L99.4091 39.0031ZM101.874 41.7016C102.466 41.7016 102.81 41.3896 102.81 40.9217V40.9061C102.81 40.3757 102.451 40.1105 101.842 40.1105H100.626V41.7172L101.874 41.7016Z" fill="#2250C6"></path><path d="M104.978 42.1851V39.0031H106.21V42.1539C106.21 43.0586 106.662 43.5266 107.411 43.5266C108.16 43.5266 108.612 43.0742 108.612 42.1851V39.0031H109.844V42.1383C109.844 43.823 108.893 44.6497 107.395 44.6497C105.898 44.6497 104.978 43.823 104.978 42.1851Z" fill="#2250C6"></path><path d="M110.578 43.7605L111.295 42.887C111.794 43.3082 112.325 43.5578 112.964 43.5578C113.463 43.5578 113.775 43.355 113.775 43.0274V43.0118C113.775 42.6998 113.588 42.5439 112.652 42.3099C111.529 42.0291 110.812 41.7171 110.812 40.6097V40.5941C110.812 39.5802 111.623 38.9094 112.761 38.9094C113.572 38.9094 114.259 39.159 114.836 39.6114L114.196 40.5317C113.697 40.1885 113.214 39.9857 112.746 39.9857C112.278 39.9857 112.028 40.2041 112.028 40.4693V40.4849C112.028 40.8436 112.262 40.9684 113.229 41.218C114.352 41.5144 114.992 41.9199 114.992 42.887V42.9026C114.992 44.0101 114.15 44.6341 112.949 44.6341C112.106 44.6496 111.248 44.3533 110.578 43.7605Z" fill="#2250C6"></path><path d="M115.538 43.7605L116.255 42.887C116.755 43.3082 117.285 43.5578 117.924 43.5578C118.424 43.5578 118.736 43.355 118.736 43.0274V43.0118C118.736 42.6998 118.548 42.5439 117.612 42.3099C116.489 42.0291 115.772 41.7171 115.772 40.6097V40.5941C115.772 39.5802 116.583 38.9094 117.722 38.9094C118.533 38.9094 119.219 39.159 119.796 39.6114L119.157 40.5317C118.658 40.1885 118.174 39.9857 117.706 39.9857C117.238 39.9857 116.988 40.2041 116.988 40.4693V40.4849C116.988 40.8436 117.222 40.9684 118.19 41.218C119.313 41.5144 119.952 41.9199 119.952 42.887V42.9026C119.952 44.0101 119.11 44.6341 117.909 44.6341C117.051 44.6496 116.209 44.3533 115.538 43.7605Z" fill="#2250C6"></path><path d="M120.935 39.0031H125.131V40.0949H122.152V41.218H124.772V42.3099H122.152V43.4798H125.178V44.5717H120.935V39.0031Z" fill="#2250C6"></path><path d="M126.238 39.0031H127.471V43.4642H130.247V44.5717H126.238V39.0031Z" fill="#2250C6"></path><path d="M130.793 43.7605L131.511 42.887C132.01 43.3082 132.54 43.5578 133.18 43.5578C133.679 43.5578 133.991 43.355 133.991 43.0274V43.0118C133.991 42.6998 133.804 42.5439 132.868 42.3099C131.745 42.0291 131.027 41.7171 131.027 40.6097V40.5941C131.027 39.5802 131.838 38.9094 132.977 38.9094C133.788 38.9094 134.474 39.159 135.051 39.6114L134.412 40.5317C133.913 40.1885 133.429 39.9857 132.961 39.9857C132.493 39.9857 132.244 40.2041 132.244 40.4693V40.4849C132.244 40.8436 132.478 40.9684 133.445 41.218C134.568 41.5144 135.207 41.9199 135.207 42.887V42.9026C135.207 44.0101 134.365 44.6341 133.164 44.6341C132.306 44.6496 131.464 44.3533 130.793 43.7605Z" fill="#2250C6"></path><path d="M97.6774 14.6695L97.459 14.1392H95.9772L94.0274 18.7407L93.5906 19.7546H95.2129L95.6028 18.7563H97.7554L98.161 19.7546H99.8144L97.6774 14.6695ZM96.0708 17.5552L96.6947 15.9642L97.3187 17.5552H96.0708Z" fill="#2250C6"></path><path d="M100.235 14.1859V19.7546H101.795V14.1859H100.235Z" fill="#2250C6"></path><path d="M82.469 14.1235L76.7912 28.2089V14.1235H82.469ZM72.7044 17.4148C71.6905 16.3697 70.3802 15.5586 68.758 14.9814C67.1358 14.4043 65.1548 14.1079 62.815 14.1079H60.4752L48.4332 22.3439V40.1885L42.5838 26.3527L35.9389 30.9074L36.594 32.5609H33.5211L16.3628 44.3065L16.2849 44.5093H25.1448L27.313 39.081H39.0274L41.2424 44.5093H56.872V35.3062H60.5688L66.699 44.5093H70.2399L72.5328 38.8314L69.1792 33.9179C71.0978 33.1068 72.6108 31.9369 73.7339 30.3927C74.857 28.864 75.4341 26.9142 75.4341 24.5745V24.4809C75.4029 21.5016 74.4982 19.1462 72.7044 17.4148ZM66.933 25.1048C66.933 26.1967 66.543 27.0858 65.7631 27.7253C64.9832 28.3805 63.8601 28.7081 62.425 28.7081H56.872V21.408H62.3938C63.8133 21.408 64.9208 21.7044 65.7319 22.2971C66.543 22.8898 66.9486 23.7945 66.9486 25.0112L66.933 25.1048Z" fill="url(#paint0_linear_304_20090)"></path><path d="M81.0184 11.269C84.0335 11.269 86.4778 8.82473 86.4778 5.80955C86.4778 2.79438 84.0335 0.350098 81.0184 0.350098C78.0032 0.350098 75.5589 2.79438 75.5589 5.80955C75.5589 8.82473 78.0032 11.269 81.0184 11.269Z" fill="#18D2D2"></path><path d="M101.016 13.6555C101.567 13.6555 102.014 13.2086 102.014 12.6572C102.014 12.1059 101.567 11.6589 101.016 11.6589C100.464 11.6589 100.017 12.1059 100.017 12.6572C100.017 13.2086 100.464 13.6555 101.016 13.6555Z" fill="#2250C6"></path></g><defs><linearGradient id="paint0_linear_304_20090" x1="78.3042" y1="12.2049" x2="49.3769" y2="44.5093" gradientUnits="userSpaceOnUse"><stop stop-color="#18D2D2"></stop><stop offset="1" stop-color="#DDDDDD" stop-opacity="0"></stop></linearGradient><clipPath id="clip0_304_20090"><rect width="156" height="44.2996" fill="white" transform="translate(0 0.350098)"></rect></clipPath></defs></svg>