<?xml version="1.0" encoding="UTF-8" standalone="no"?>
<svg
   version="1.1"
   viewBox="0 0 1532 1440"
   width="383"
   height="360"
   id="svg11"
   sodipodi:docname="brain_trans.svg"
   inkscape:version="1.4 (e7c3feb1, 2024-10-09)"
   xmlns:inkscape="http://www.inkscape.org/namespaces/inkscape"
   xmlns:sodipodi="http://sodipodi.sourceforge.net/DTD/sodipodi-0.dtd"
   xmlns="http://www.w3.org/2000/svg"
   xmlns:svg="http://www.w3.org/2000/svg">
  <defs
     id="defs11" />
  <sodipodi:namedview
     id="namedview11"
     pagecolor="#ffffff"
     bordercolor="#000000"
     borderopacity="0.25"
     inkscape:showpageshadow="2"
     inkscape:pageopacity="0.0"
     inkscape:pagecheckerboard="true"
     inkscape:deskcolor="#d1d1d1"
     inkscape:zoom="1.8325002"
     inkscape:cx="196.18006"
     inkscape:cy="202.72849"
     inkscape:window-width="1104"
     inkscape:window-height="860"
     inkscape:window-x="0"
     inkscape:window-y="38"
     inkscape:window-maximized="0"
     inkscape:current-layer="svg11" />
  <path
     id="path2"
     d="M 0 0 L -9 1 L -28 5 L -45 12 L -58 20 L -66 27 L -77 40 L -86 54 L -94 73 L -97 85 L -99 104 L -99 974 L -97 1002 L -93 1024 L -87 1045 L -79 1063 L -67 1084 L -57 1097 L -38 1116 L -21 1129 L -3 1140 L 16 1149 L 32 1155 L 61 1162 L 84 1165 L 101 1165 L 120 1162 L 142 1156 L 162 1148 L 178 1139 L 196 1126 L 214 1108 L 223 1097 L 233 1083 L 235 1079 L 239 1078 L 251 1079 L 258 1083 L 258 1090 L 250 1102 L 239 1118 L 238 1123 L 246 1125 L 266 1127 L 287 1127 L 304 1125 L 322 1121 L 339 1115 L 362 1103 L 380 1090 L 389 1081 L 397 1071 L 407 1056 L 420 1035 L 429 1022 L 438 1013 L 449 1004 L 462 993 L 470 986 L 476 979 L 485 969 L 497 953 L 506 936 L 514 916 L 520 891 L 522 873 L 522 855 L 521 837 L 521 824 L 525 817 L 539 797 L 551 777 L 557 763 L 563 744 L 566 728 L 569 703 L 569 668 L 568 655 L 566 641 L 560 617 L 552 595 L 543 578 L 531 559 L 518 541 L 511 529 L 507 519 L 507 508 L 509 482 L 509 445 L 507 428 L 502 407 L 496 389 L 487 370 L 476 351 L 464 335 L 448 319 L 435 308 L 418 296 L 401 286 L 384 278 L 360 270 L 333 264 L 308 261 L 278 261 L 264 262 L 251 264 L 226 270 L 204 278 L 188 286 L 187 290 L 190 304 L 195 328 L 196 344 L 195 365 L 193 381 L 189 399 L 182 420 L 173 439 L 166 449 L 160 453 L 153 453 L 146 450 L 140 443 L 139 436 L 142 427 L 151 410 L 157 394 L 162 375 L 164 358 L 164 346 L 163 336 L 159 313 L 153 293 L 146 277 L 137 261 L 128 248 L 114 234 L 101 224 L 87 215 L 70 207 L 47 201 L 31 199 L -1 199 L -5 196 L -9 188 L -9 180 L -6 174 L 0 170 L 10 167 L 36 167 L 53 169 L 73 174 L 94 182 L 111 191 L 124 199 L 138 210 L 147 219 L 165 239 L 177 253 L 181 252 L 196 245 L 218 237 L 242 231 L 272 227 L 311 227 L 322 228 L 341 231 L 367 237 L 379 239 L 379 237 L 369 213 L 357 184 L 348 167 L 338 152 L 327 138 L 321 133 L 310 123 L 299 115 L 287 108 L 269 100 L 249 94 L 232 91 L 215 90 L 194 91 L 178 94 L 154 101 L 145 102 L 140 99 L 135 91 L 134 84 L 136 80 L 140 78 L 153 76 L 158 74 L 157 69 L 148 57 L 140 49 L 129 40 L 113 28 L 88 15 L 68 8 L 47 3 L 26 0 L 0 0 z M 243.89062 368.73438 L 260.89062 368.73438 L 285.89062 373.59375 L 301.89062 378.44531 L 322.89844 386.21875 L 341.89844 395.92969 L 361.90625 409.52344 L 375.92188 421.17188 L 389.92188 434.76562 L 400.92969 448.36719 L 409.9375 461.96094 L 418.95312 478.46875 L 426.96094 498.85938 L 431.96875 517.3125 L 434.97656 537.70312 L 435.99219 550.32812 L 436 561.00781 L 434.00781 581.39844 L 431.02344 595.96875 L 427.02344 609.5625 L 421.03125 624.125 L 413.03906 638.69531 L 405.04688 650.34375 L 397.04688 660.05469 L 385.0625 672.67969 L 370.07031 684.32812 L 356.07031 693.07031 L 340.07812 700.84375 L 322.07812 707.64062 L 299.07812 712.49219 L 283.07812 713.46094 L 258.07812 711.52344 L 238.07812 707.64062 L 225.07812 702.78125 L 219.07812 697.92969 L 218.07031 690.15625 L 221.07031 681.42188 L 226.0625 675.59375 L 237.0625 676.5625 L 261.07031 681.42188 L 270.07031 682.39062 L 284.07031 682.39062 L 300.0625 679.47656 L 316.0625 674.625 L 335.0625 665.88281 L 347.04688 658.11719 L 356.04688 651.3125 L 366.03906 642.57812 L 375.03906 631.89844 L 383.03125 619.27344 L 391.02344 603.73438 L 398.00781 583.34375 L 401 563.92188 L 400.99219 549.35156 L 398.97656 530.90625 L 394.96875 512.45312 L 387.96094 494.00781 L 379.95312 479.4375 L 367.9375 462.92969 L 355.92969 449.33594 L 347.92969 441.5625 L 337.92188 433.79688 L 321.92188 424.08594 L 305.90625 416.32031 L 290.90625 410.49219 L 274.90625 405.64062 L 252.89844 400.78125 L 239.89844 396.89844 L 235.89844 392.03906 L 235.89062 379.42188 L 238.89062 372.61719 L 243.89062 368.73438 z M -9 424 L 3 424 L 15 428 L 34 438 L 48 448 L 62 460 L 71 470 L 81 485 L 89 500 L 97 524 L 100 542 L 100 568 L 97 588 L 91 607 L 81 628 L 71 642 L 60 654 L 48 665 L 30 677 L 11 686 L 3 688 L -8 688 L -13 684 L -17 674 L -17 667 L -10 661 L 9 652 L 24 642 L 34 633 L 44 622 L 55 604 L 62 585 L 65 568 L 65 548 L 61 527 L 55 511 L 46 495 L 35 482 L 25 473 L 12 464 L -11 452 L -19 446 L -19 437 L -14 428 L -9 424 z M 457 689 L 465 689 L 472 693 L 475 700 L 477 710 L 478 727 L 478 746 L 475 772 L 469 799 L 460 826 L 452 842 L 444 856 L 436 867 L 426 880 L 417 890 L 410 898 L 400 908 L 389 917 L 373 929 L 355 940 L 333 952 L 309 962 L 299 965 L 287 965 L 282 960 L 279 952 L 279 945 L 283 940 L 318 925 L 337 915 L 353 904 L 369 891 L 379 882 L 392 869 L 401 858 L 412 842 L 421 827 L 431 804 L 438 781 L 442 759 L 443 749 L 443 722 L 442 705 L 445 697 L 451 692 L 457 689 z M 208 796 L 238 796 L 252 798 L 262 802 L 267 807 L 268 809 L 268 823 L 265 828 L 262 830 L 243 829 L 231 828 L 220 828 L 197 831 L 176 836 L 158 842 L 137 852 L 131 856 L 128 862 L 125 876 L 117 897 L 109 914 L 96 935 L 86 948 L 77 959 L 60 976 L 49 985 L 32 997 L 20 1004 L 8 1009 L -1 1011 L -9 1010 L -14 1005 L -16 1002 L -17 992 L -11 985 L 12 973 L 26 963 L 42 950 L 55 937 L 63 927 L 72 914 L 81 898 L 87 883 L 91 869 L 94 844 L 98 836 L 107 828 L 125 818 L 148 809 L 167 803 L 190 798 L 208 796 z "
     transform="translate(884,174)"
     style="fill:#0a6153;fill-opacity:1" />
  <path
     id="path3"
     style="fill:#89a454;fill-opacity:1"
     d="M 0 0 L -18 2 L -40 7 L -62 15 L -81 25 L -94 33 L -108 44 L -120 56 L -130 70 L -131 75 L -128 76 L -107 80 L -107 82 L -108 95 L -110 98 L -115 101 L -128 101 L -150 95 L -168 91 L -203 91 L -226 95 L -250 103 L -273 115 L -289 127 L -301 139 L -310 150 L -319 162 L -327 176 L -340 205 L -352 237 L -349 238 L -312 231 L -285 227 L -247 227 L -226 230 L -200 236 L -176 244 L -157 253 L -153 255 L -151 252 L -143 241 L -134 230 L -118 214 L -105 203 L -90 192 L -73 183 L -53 175 L -30 169 L -14 167 L 12 167 L 20 168 L 32 173 L 37 179 L 37 189 L 34 195 L 28 199 L -12 199 L -19 200 L -33 203 L -54 210 L -75 221 L -90 232 L -101 243 L -110 254 L -118 266 L -126 283 L -132 300 L -137 325 L -139 348 L -138 366 L -135 383 L -131 395 L -124 411 L -111 435 L -110 440 L -119 448 L -129 453 L -137 451 L -142 447 L -149 437 L -160 413 L -167 392 L -172 367 L -173 347 L -171 325 L -165 296 L -164 286 L -182 279 L -212 269 L -234 264 L -257 261 L -286 261 L -296 262 L -315 265 L -336 270 L -358 277 L -378 286 L -398 298 L -411 308 L -422 317 L -434 329 L -436 333 L -438 333 L -448 346 L -460 366 L -470 387 L -478 411 L -483 436 L -483 479 L -481 502 L -481 521 L -488 533 L -495 544 L -508 564 L -518 582 L -525 598 L -531 616 L -536 636 L -540 661 L -540 703 L -536 734 L -530 758 L -522 778 L -511 797 L -502 811 L -494 827 L -494 837 L -495 845 L -495 877 L -492 897 L -486 919 L -478 938 L -468 956 L -455 974 L -439 990 L -426 1002 L -414 1013 L -403 1025 L -394 1037 L -383 1055 L -373 1070 L -363 1082 L -351 1093 L -339 1102 L -325 1110 L -307 1118 L -288 1123 L -268 1126 L -221 1126 L -211 1124 L -212 1119 L -218 1111 L -225 1101 L -229 1090 L -229 1082 L -228 1081 L -220 1079 L -213 1080 L -208 1085 L -200 1095 L -190 1108 L -179 1119 L -167 1130 L -155 1139 L -137 1149 L -120 1156 L -101 1161 L -80 1164 L -45 1164 L -38 1163 L -19 1159 L 5 1151 L 21 1144 L 33 1137 L 48 1127 L 61 1117 L 77 1101 L 86 1091 L 94 1081 L 102 1067 L 110 1051 L 116 1034 L 120 1017 L 123 990 L 123 100 L 120 79 L 114 60 L 108 48 L 99 35 L 91 27 L 78 17 L 62 9 L 44 3 L 24 0 L 0 0 z M -238 341 L -221 341 L -216 344 L -213 348 L -212 352 L -212 365 L -215 370 L -222 373 L -258 382 L -282 390 L -298 398 L -312 407 L -322 415 L -332 424 L -342 434 L -354 451 L -363 466 L -371 485 L -375 500 L -377 515 L -377 544 L -374 565 L -369 582 L -361 598 L -354 609 L -343 622 L -332 633 L -317 644 L -303 652 L -289 658 L -271 663 L -258 665 L -242 665 L -215 659 L -202 659 L -196 663 L -192 669 L -191 678 L -194 683 L -200 688 L -215 693 L -229 696 L -237 697 L -267 697 L -286 694 L -306 688 L -322 681 L -340 671 L -352 662 L -362 653 L -375 640 L -387 623 L -396 607 L -404 588 L -410 567 L -413 549 L -414 539 L -414 520 L -411 495 L -405 474 L -397 455 L -388 439 L -377 423 L -366 410 L -357 400 L -355 400 L -355 398 L -347 391 L -333 380 L -318 370 L -295 358 L -274 350 L -250 343 L -238 341 z M 23 423 L 36 423 L 44 428 L 46 432 L 46 446 L 41 450 L 23 458 L 9 466 L -5 478 L -14 487 L -24 502 L -34 523 L -38 536 L -40 552 L -40 563 L -37 584 L -32 599 L -24 614 L -16 625 L -7 635 L 6 645 L 25 656 L 43 666 L 46 670 L 45 677 L 40 684 L 32 689 L 21 689 L 6 684 L -10 676 L -22 668 L -34 657 L -43 648 L -53 634 L -61 620 L -67 606 L -72 590 L -75 573 L -76 560 L -76 547 L -74 529 L -68 509 L -61 493 L -53 479 L -42 466 L -35 458 L -23 447 L -13 440 L 4 430 L 19 424 L 23 423 z M -438 690 L -430 690 L -423 694 L -416 700 L -415 702 L -415 743 L -413 762 L -408 787 L -400 811 L -390 832 L -378 851 L -367 865 L -356 877 L -344 889 L -333 898 L -315 911 L -292 924 L -271 934 L -253 942 L -248 947 L -247 952 L -250 960 L -254 965 L -259 968 L -268 968 L -281 964 L -302 955 L -323 944 L -342 932 L -356 922 L -370 910 L -385 895 L -394 884 L -407 867 L -418 849 L -428 828 L -436 807 L -442 784 L -446 760 L -447 748 L -447 705 L -445 696 L -440 691 L -438 690 z M -213 797 L -180 797 L -160 799 L -134 805 L -117 811 L -97 820 L -79 831 L -69 839 L -66 846 L -60 876 L -54 895 L -46 910 L -38 922 L -27 935 L -20 943 L -8 955 L 12 970 L 25 978 L 42 989 L 46 994 L 45 1000 L 37 1009 L 32 1011 L 22 1010 L 5 1003 L -13 992 L -27 981 L -40 969 L -48 962 L -57 951 L -65 941 L -76 923 L -84 908 L -97 875 L -104 859 L -112 852 L -133 842 L -154 835 L -176 830 L -184 829 L -209 829 L -230 831 L -235 829 L -239 822 L -240 818 L -240 811 L -236 805 L -230 801 L -220 798 L -213 797 z "
     transform="translate(612,174)" />
</svg>
